<mxfile host="Electron" agent="Mozilla/5.0 (X11; Linux x86_64) AppleWebKit/537.36 (KHTML, like Gecko) draw.io/25.0.1 Chrome/128.0.6613.186 Electron/32.2.6 Safari/537.36" version="25.0.1">
  <diagram name="Page-1" id="PBnBV-Y0V60mV5MBWS8a">
    <mxGraphModel dx="966" dy="561" grid="1" gridSize="10" guides="1" tooltips="1" connect="1" arrows="1" fold="1" page="1" pageScale="1" pageWidth="1169" pageHeight="827" math="0" shadow="0">
      <root>
        <mxCell id="0" />
        <mxCell id="1" parent="0" />
        <mxCell id="M9Pv0g2o_fq0gZnYGhzn-20" style="edgeStyle=orthogonalEdgeStyle;rounded=0;orthogonalLoop=1;jettySize=auto;html=1;entryX=0.5;entryY=0;entryDx=0;entryDy=0;" parent="1" source="M9Pv0g2o_fq0gZnYGhzn-1" target="M9Pv0g2o_fq0gZnYGhzn-7" edge="1">
          <mxGeometry relative="1" as="geometry" />
        </mxCell>
        <mxCell id="M9Pv0g2o_fq0gZnYGhzn-21" style="edgeStyle=orthogonalEdgeStyle;rounded=0;orthogonalLoop=1;jettySize=auto;html=1;entryX=0.5;entryY=0;entryDx=0;entryDy=0;" parent="1" source="M9Pv0g2o_fq0gZnYGhzn-1" target="M9Pv0g2o_fq0gZnYGhzn-8" edge="1">
          <mxGeometry relative="1" as="geometry" />
        </mxCell>
        <mxCell id="M9Pv0g2o_fq0gZnYGhzn-22" style="edgeStyle=orthogonalEdgeStyle;rounded=0;orthogonalLoop=1;jettySize=auto;html=1;" parent="1" source="M9Pv0g2o_fq0gZnYGhzn-1" target="M9Pv0g2o_fq0gZnYGhzn-9" edge="1">
          <mxGeometry relative="1" as="geometry" />
        </mxCell>
        <mxCell id="M9Pv0g2o_fq0gZnYGhzn-1" value="List all installed EduArt Software" style="rounded=1;whiteSpace=wrap;html=1;fillColor=#dae8fc;strokeColor=#6c8ebf;" parent="1" vertex="1">
          <mxGeometry x="370" y="271" width="120" height="60" as="geometry" />
        </mxCell>
        <mxCell id="M9Pv0g2o_fq0gZnYGhzn-17" style="edgeStyle=orthogonalEdgeStyle;rounded=0;orthogonalLoop=1;jettySize=auto;html=1;entryX=0.5;entryY=0;entryDx=0;entryDy=0;" parent="1" source="M9Pv0g2o_fq0gZnYGhzn-2" target="M9Pv0g2o_fq0gZnYGhzn-10" edge="1">
          <mxGeometry relative="1" as="geometry" />
        </mxCell>
        <mxCell id="M9Pv0g2o_fq0gZnYGhzn-2" value="List all available EduArt Software" style="rounded=1;whiteSpace=wrap;html=1;fillColor=#dae8fc;strokeColor=#6c8ebf;" parent="1" vertex="1">
          <mxGeometry x="750" y="271" width="120" height="60" as="geometry" />
        </mxCell>
        <mxCell id="M9Pv0g2o_fq0gZnYGhzn-4" value="Note:&lt;div&gt;Uses current EduArt docker deploy work flow to be compatible to already installed software.&lt;/div&gt;" style="rounded=0;whiteSpace=wrap;html=1;dashed=1;align=left;verticalAlign=top;" parent="1" vertex="1">
          <mxGeometry x="200" y="281" width="120" height="100" as="geometry" />
        </mxCell>
        <mxCell id="M9Pv0g2o_fq0gZnYGhzn-5" value="" style="endArrow=none;dashed=1;html=1;dashPattern=1 3;strokeWidth=2;rounded=0;exitX=1;exitY=0.5;exitDx=0;exitDy=0;entryX=0;entryY=0.5;entryDx=0;entryDy=0;" parent="1" source="M9Pv0g2o_fq0gZnYGhzn-4" target="M9Pv0g2o_fq0gZnYGhzn-1" edge="1">
          <mxGeometry width="50" height="50" relative="1" as="geometry">
            <mxPoint x="510" y="451" as="sourcePoint" />
            <mxPoint x="560" y="401" as="targetPoint" />
          </mxGeometry>
        </mxCell>
        <mxCell id="M9Pv0g2o_fq0gZnYGhzn-15" style="edgeStyle=orthogonalEdgeStyle;rounded=0;orthogonalLoop=1;jettySize=auto;html=1;entryX=0.5;entryY=0;entryDx=0;entryDy=0;" parent="1" source="M9Pv0g2o_fq0gZnYGhzn-6" target="M9Pv0g2o_fq0gZnYGhzn-1" edge="1">
          <mxGeometry relative="1" as="geometry" />
        </mxCell>
        <mxCell id="P1xzqybOUno-cYwK7tsH-2" style="edgeStyle=orthogonalEdgeStyle;rounded=0;orthogonalLoop=1;jettySize=auto;html=1;entryX=0;entryY=0.5;entryDx=0;entryDy=0;" edge="1" parent="1" source="M9Pv0g2o_fq0gZnYGhzn-6" target="P1xzqybOUno-cYwK7tsH-1">
          <mxGeometry relative="1" as="geometry" />
        </mxCell>
        <mxCell id="M9Pv0g2o_fq0gZnYGhzn-6" value="check if internet connection is available" style="rounded=1;whiteSpace=wrap;html=1;fillColor=#d5e8d4;strokeColor=#82b366;" parent="1" vertex="1">
          <mxGeometry x="370" y="166" width="120" height="60" as="geometry" />
        </mxCell>
        <mxCell id="M9Pv0g2o_fq0gZnYGhzn-7" value="update EduArt software" style="rounded=1;whiteSpace=wrap;html=1;fillColor=#dae8fc;strokeColor=#6c8ebf;" parent="1" vertex="1">
          <mxGeometry x="590" y="481" width="120" height="60" as="geometry" />
        </mxCell>
        <mxCell id="M9Pv0g2o_fq0gZnYGhzn-8" value="remove EduArt software" style="rounded=1;whiteSpace=wrap;html=1;fillColor=#dae8fc;strokeColor=#6c8ebf;" parent="1" vertex="1">
          <mxGeometry x="440" y="481" width="120" height="60" as="geometry" />
        </mxCell>
        <mxCell id="M9Pv0g2o_fq0gZnYGhzn-9" value="enable/disable EduArt software" style="rounded=1;whiteSpace=wrap;html=1;fillColor=#dae8fc;strokeColor=#6c8ebf;" parent="1" vertex="1">
          <mxGeometry x="290" y="481" width="120" height="60" as="geometry" />
        </mxCell>
        <mxCell id="M9Pv0g2o_fq0gZnYGhzn-10" value="install EduArt software" style="rounded=1;whiteSpace=wrap;html=1;fillColor=#dae8fc;strokeColor=#6c8ebf;" parent="1" vertex="1">
          <mxGeometry x="750" y="481" width="120" height="60" as="geometry" />
        </mxCell>
        <mxCell id="M9Pv0g2o_fq0gZnYGhzn-14" style="edgeStyle=orthogonalEdgeStyle;rounded=0;orthogonalLoop=1;jettySize=auto;html=1;entryX=0.5;entryY=0;entryDx=0;entryDy=0;" parent="1" source="M9Pv0g2o_fq0gZnYGhzn-11" target="M9Pv0g2o_fq0gZnYGhzn-6" edge="1">
          <mxGeometry relative="1" as="geometry" />
        </mxCell>
        <mxCell id="M9Pv0g2o_fq0gZnYGhzn-11" value="detect current hardware" style="rounded=1;whiteSpace=wrap;html=1;fillColor=#d5e8d4;strokeColor=#82b366;" parent="1" vertex="1">
          <mxGeometry x="370" y="60" width="120" height="60" as="geometry" />
        </mxCell>
        <mxCell id="M9Pv0g2o_fq0gZnYGhzn-12" value="Note:&lt;div&gt;It is important to detect current hardware for choosing correct files.&lt;/div&gt;" style="rounded=0;whiteSpace=wrap;html=1;dashed=1;align=left;verticalAlign=top;" parent="1" vertex="1">
          <mxGeometry x="190" y="50" width="120" height="100" as="geometry" />
        </mxCell>
        <mxCell id="M9Pv0g2o_fq0gZnYGhzn-13" value="" style="endArrow=none;dashed=1;html=1;dashPattern=1 3;strokeWidth=2;rounded=0;entryX=1;entryY=0.5;entryDx=0;entryDy=0;exitX=0;exitY=0.5;exitDx=0;exitDy=0;" parent="1" source="M9Pv0g2o_fq0gZnYGhzn-11" target="M9Pv0g2o_fq0gZnYGhzn-12" edge="1">
          <mxGeometry width="50" height="50" relative="1" as="geometry">
            <mxPoint x="380" y="140" as="sourcePoint" />
            <mxPoint x="430" y="90" as="targetPoint" />
          </mxGeometry>
        </mxCell>
        <mxCell id="M9Pv0g2o_fq0gZnYGhzn-18" value="" style="endArrow=none;dashed=1;html=1;dashPattern=1 3;strokeWidth=2;rounded=0;" parent="1" edge="1">
          <mxGeometry width="50" height="50" relative="1" as="geometry">
            <mxPoint x="575" y="710" as="sourcePoint" />
            <mxPoint x="575" y="40" as="targetPoint" />
          </mxGeometry>
        </mxCell>
        <mxCell id="M9Pv0g2o_fq0gZnYGhzn-19" value="Path only available if an internet connection is pressent." style="text;html=1;align=left;verticalAlign=middle;whiteSpace=wrap;rounded=0;" parent="1" vertex="1">
          <mxGeometry x="600" y="50" width="200" height="50" as="geometry" />
        </mxCell>
        <mxCell id="P1xzqybOUno-cYwK7tsH-3" style="edgeStyle=orthogonalEdgeStyle;rounded=0;orthogonalLoop=1;jettySize=auto;html=1;" edge="1" parent="1" source="P1xzqybOUno-cYwK7tsH-1" target="M9Pv0g2o_fq0gZnYGhzn-2">
          <mxGeometry relative="1" as="geometry" />
        </mxCell>
        <mxCell id="P1xzqybOUno-cYwK7tsH-1" value="Download software list from Github" style="rounded=1;whiteSpace=wrap;html=1;fillColor=#d5e8d4;strokeColor=#82b366;" vertex="1" parent="1">
          <mxGeometry x="750" y="166" width="120" height="60" as="geometry" />
        </mxCell>
        <mxCell id="P1xzqybOUno-cYwK7tsH-4" value="TUI" style="rounded=1;whiteSpace=wrap;html=1;fillColor=#dae8fc;strokeColor=#6c8ebf;" vertex="1" parent="1">
          <mxGeometry x="100" y="670" width="70" height="30" as="geometry" />
        </mxCell>
        <mxCell id="P1xzqybOUno-cYwK7tsH-5" value="Non TUI" style="rounded=1;whiteSpace=wrap;html=1;fillColor=#d5e8d4;strokeColor=#82b366;" vertex="1" parent="1">
          <mxGeometry x="190" y="670" width="70" height="30" as="geometry" />
        </mxCell>
      </root>
    </mxGraphModel>
  </diagram>
</mxfile>
